<svg width="16" height="16" fill="none" xmlns="http://www.w3.org/2000/svg"><g clip-path="url('#clip0_1_1340')"><path d="m9.762 8 5.982-5.982A.871.871 0 0 0 16 1.399a.868.868 0 0 0-.256-.619L15.22.256a.868.868 0 0 0-.619-.255.868.868 0 0 0-.619.255L8 6.238 2.018.256a.867.867 0 0 0-.619-.255.867.867 0 0 0-.619.255L.256.78a.876.876 0 0 0 0 1.238L6.238 8 .256 13.982a.87.87 0 0 0-.255.62c0 .234.09.453.255.618l.524.524A.867.867 0 0 0 1.4 16c.234 0 .454-.09.619-.256L8 9.762l5.982 5.982a.868.868 0 0 0 .619.256c.234 0 .454-.09.619-.256l.524-.524a.87.87 0 0 0 .256-.619.87.87 0 0 0-.256-.619L9.762 8Z" fill="#fff"/></g><defs><clipPath id="clip0_1_1340"><path fill="#fff" d="M0 0h16v16H0z"/></clipPath></defs></svg>