<svg width="22" height="22" fill="none" xmlns="http://www.w3.org/2000/svg"><path d="M12.275 21.635c-.108.004-.177.013-.245.013-1.47 0-2.935-.005-4.405.004-.206 0-.262-.056-.262-.262.005-3.42.005-6.845.005-10.265v-.297H5V7.176h.232c.645 0 1.29-.005 1.934.004.163 0 .206-.047.206-.206-.009-.958-.009-1.92 0-2.88.004-.67.112-1.323.421-1.928C8.236 1.31 8.936.756 9.821.413c.722-.284 1.482-.387 2.247-.4C13.315-.004 14.56.004 15.807 0c.116 0 .21-.004.21.159-.004 1.182-.004 2.363-.004 3.545 0 .013-.004.026-.022.082h-.236c-.773 0-1.547-.005-2.32 0-.447 0-.808.18-1.036.571a.827.827 0 0 0-.111.404c-.013.73 0 1.46-.01 2.191 0 .172.053.22.22.22 1.074-.01 2.149-.005 3.223-.005h.313c-.15 1.23-.296 2.432-.446 3.648h-3.313v10.82Z" fill="#fff"/></svg>