<svg width="22" height="22" fill="none" xmlns="http://www.w3.org/2000/svg"><g clip-path="url('#clip0_311_397')" fill="#fff"><path d="M21.979 6.468c-.052-1.169-.241-1.973-.512-2.669a5.37 5.37 0 0 0-1.272-1.951A5.415 5.415 0 0 0 18.248.58c-.7-.27-1.5-.46-2.669-.511C14.402.013 14.028 0 11.041 0S7.68.013 6.507.064c-1.17.052-1.973.241-2.669.512-.74.28-1.401.709-1.951 1.272A5.416 5.416 0 0 0 .619 3.795c-.27.7-.46 1.5-.511 2.669-.056 1.177-.07 1.551-.07 4.538s.014 3.36.065 4.534c.052 1.17.24 1.973.512 2.67.279.738.713 1.4 1.272 1.95.55.559 1.216.993 1.947 1.268.7.27 1.5.46 2.669.512 1.173.051 1.547.064 4.534.064s3.36-.013 4.534-.064c1.169-.052 1.972-.241 2.668-.512a5.627 5.627 0 0 0 3.22-3.219c.27-.7.46-1.5.511-2.669.052-1.173.064-1.547.064-4.534s-.004-3.36-.055-4.534Zm-1.982 8.982c-.047 1.075-.227 1.655-.378 2.042a3.65 3.65 0 0 1-2.089 2.088c-.386.15-.97.331-2.041.379-1.16.051-1.508.064-4.444.064-2.935 0-3.288-.013-4.444-.064-1.074-.048-1.654-.228-2.041-.378a3.386 3.386 0 0 1-1.264-.822 3.42 3.42 0 0 1-.82-1.263c-.15-.387-.331-.971-.379-2.041-.051-1.16-.064-1.509-.064-4.444 0-2.936.013-3.288.064-4.444.048-1.074.228-1.655.378-2.041.177-.478.456-.912.826-1.264a3.415 3.415 0 0 1 1.263-.82c.387-.151.972-.332 2.042-.38 1.16-.05 1.508-.064 4.443-.064 2.94 0 3.288.013 4.444.065 1.075.047 1.655.228 2.042.378.477.176.91.456 1.263.82.366.358.645.787.821 1.265.15.386.331.97.378 2.04.052 1.161.065 1.51.065 4.445 0 2.935-.013 3.279-.065 4.44Z"/><path d="M11.04 5.35a5.653 5.653 0 0 0-5.65 5.652 5.653 5.653 0 0 0 5.65 5.652 5.653 5.653 0 0 0 5.652-5.652 5.653 5.653 0 0 0-5.651-5.651Zm0 9.318a3.667 3.667 0 1 1 .002-7.333 3.667 3.667 0 0 1-.001 7.333ZM18.235 5.127a1.32 1.32 0 1 1-2.639 0 1.32 1.32 0 0 1 2.64 0Z"/></g><defs><clipPath id="clip0_311_397"><path fill="#fff" d="M0 0h22v22H0z"/></clipPath></defs></svg>