<svg width="22" height="22" viewBox="0 0 22 22" fill="none" xmlns="http://www.w3.org/2000/svg">
<path d="M12.2746 21.6348C12.1672 21.6391 12.0984 21.6477 12.0297 21.6477C10.5602 21.6477 9.09492 21.6434 7.62539 21.652C7.41914 21.652 7.36328 21.5961 7.36328 21.3899C7.36758 17.9695 7.36758 14.5449 7.36758 11.1246C7.36758 11.0344 7.36758 10.9442 7.36758 10.8281C6.56836 10.8281 5.79062 10.8281 5 10.8281C5 9.60782 5 8.40899 5 7.17579C5.08164 7.17579 5.15898 7.17579 5.23203 7.17579C5.87656 7.17579 6.52109 7.1715 7.16562 7.18009C7.32891 7.18009 7.37187 7.13282 7.37187 6.97384C7.36328 6.01564 7.36328 5.05314 7.37187 4.09493C7.37617 3.42462 7.48359 2.7715 7.79297 2.16564C8.23555 1.31056 8.93594 0.756261 9.82109 0.412511C10.543 0.128917 11.3035 0.025792 12.0684 0.0129014C13.3145 -0.00428612 14.5605 0.00430762 15.8066 1.07422e-05C15.9227 1.07422e-05 16.0172 -0.00428613 16.0172 0.158995C16.0129 1.34064 16.0129 2.52228 16.0129 3.70392C16.0129 3.71681 16.0086 3.7297 15.9914 3.78556C15.9184 3.78556 15.8367 3.78556 15.7551 3.78556C14.9816 3.78556 14.2082 3.78126 13.4348 3.78556C12.9879 3.78556 12.627 3.96603 12.3992 4.35704C12.3305 4.47306 12.2875 4.62345 12.2875 4.76095C12.2746 5.49142 12.2875 6.22189 12.2789 6.95235C12.2789 7.12423 12.3305 7.17149 12.498 7.17149C13.5723 7.1629 14.6465 7.1672 15.7207 7.1672C15.8066 7.1672 15.8883 7.1672 16.0344 7.1672C15.884 8.3961 15.7379 9.59923 15.5875 10.8152C14.4703 10.8152 13.3832 10.8152 12.2746 10.8152C12.2746 14.4289 12.2746 18.0211 12.2746 21.6348Z" fill="white"/>
</svg>
